<?xml version="1.0" encoding="UTF-8" standalone="no"?>
<!-- Generator: Adobe Illustrator 20.0.0, SVG Export Plug-In . SVG Version: 6.00 Build 0)  -->

<svg
   xmlns:dc="http://purl.org/dc/elements/1.1/"
   xmlns:cc="http://creativecommons.org/ns#"
   xmlns:rdf="http://www.w3.org/1999/02/22-rdf-syntax-ns#"
   xmlns:svg="http://www.w3.org/2000/svg"
   xmlns="http://www.w3.org/2000/svg"
   xmlns:sodipodi="http://sodipodi.sourceforge.net/DTD/sodipodi-0.dtd"
   xmlns:inkscape="http://www.inkscape.org/namespaces/inkscape"
   version="1.1"
   id="Vrstva_1"
   x="0px"
   y="0px"
   viewBox="0 0 95.1 69.5"
   style="enable-background:new 0 0 95.1 69.5;"
   xml:space="preserve"
   inkscape:version="0.91 r13725"
   sodipodi:docname="citation-marker.svg"><metadata
     id="metadata13"><rdf:RDF><cc:Work
         rdf:about=""><dc:format>image/svg+xml</dc:format><dc:type
           rdf:resource="http://purl.org/dc/dcmitype/StillImage" /></cc:Work></rdf:RDF></metadata><defs
     id="defs11" /><sodipodi:namedview
     pagecolor="#ffffff"
     bordercolor="#666666"
     borderopacity="1"
     objecttolerance="10"
     gridtolerance="10"
     guidetolerance="10"
     inkscape:pageopacity="0"
     inkscape:pageshadow="2"
     inkscape:window-width="800"
     inkscape:window-height="848"
     id="namedview9"
     showgrid="false"
     inkscape:zoom="3.1335437"
     inkscape:cx="47.549999"
     inkscape:cy="34.75"
     inkscape:window-x="0"
     inkscape:window-y="24"
     inkscape:window-maximized="0"
     inkscape:current-layer="Vrstva_1" /><style
     type="text/css"
     id="style3">
	.st0{fill:#E5F1FC;}
</style><g
     id="g5"
     style="fill:#84b6e2;fill-opacity:1;"><path
       class="st0"
       d="M45.4,22.6c0,6.7-2.4,12.1-5.8,17.3L21.2,68.1H1.5l11.8-28.2C7.6,36,4.8,29.6,4.8,22.6   c0-12.4,8.8-21.2,20.3-21.2C36,1.4,45.4,9,45.4,22.6z M93.6,22.6c0,6.7-2.4,12.1-5.8,17.3L69.4,68.1H49.7l11.8-28.2   C55.7,36,53,29.6,53,22.6c0-12.4,8.8-21.2,20.3-21.2C84.2,1.4,93.6,9,93.6,22.6z"
       id="path7"
       style="fill:#84b6e2;fill-opacity:1" /></g></svg>