<?xml version="1.0" encoding="utf-8"?>
<!-- Generator: Adobe Illustrator 20.0.0, SVG Export Plug-In . SVG Version: 6.00 Build 0)  -->
<svg version="1.1" id="Vrstva_1" xmlns="http://www.w3.org/2000/svg" xmlns:xlink="http://www.w3.org/1999/xlink" x="0px" y="0px"
	 viewBox="0 0 100 100" style="enable-background:new 0 0 100 100;" xml:space="preserve">
<style type="text/css">
	.st0{fill:#3B5998;}
	.st1{fill:#FFFFFF;}
</style>
<g>
	<path class="st0" d="M50.2,1.5c27,0,48.9,21.9,48.9,48.9c0,27-21.9,48.9-48.9,48.9c-27,0-48.9-21.9-48.9-48.9
		C1.3,23.4,23.2,1.5,50.2,1.5L50.2,1.5z M50.2,1.5"/>
	<path class="st1" d="M56.1,35.2h6.3v-9.3H55v0c-9,0.3-10.8,5.4-11,10.7h0v4.7h-6.1v9.1H44v24.4h9.2V50.4h7.5l1.5-9.1h-9v-2.8
		C53.2,36.7,54.4,35.2,56.1,35.2L56.1,35.2z M56.1,35.2"/>
</g>
</svg>
