<?xml version="1.0" encoding="utf-8"?>
<!-- Generator: Adobe Illustrator 20.0.0, SVG Export Plug-In . SVG Version: 6.00 Build 0)  -->
<svg version="1.1" id="Vrstva_1" xmlns="http://www.w3.org/2000/svg" xmlns:xlink="http://www.w3.org/1999/xlink" x="0px" y="0px"
	 viewBox="0 0 146.9 124" style="enable-background:new 0 0 146.9 124;" xml:space="preserve">
<style type="text/css">
	.st0{fill:#2E3949;}
	.st1{fill:#FFFFFF;}
	.st2{fill:#FFD215;}
	.st3{fill:#CECECD;}
	.st4{fill:#AEAEAF;}
	.st5{fill:#84B6E2;}
	.st6{fill:#AF4F4E;}
</style>
<circle class="st0" cx="62.5" cy="62.1" r="61.6"/>
<path class="st1" d="M113.7,22H56c0,0-20.3,0-23.9,22.2c-2.3,13.9-3,28.3-3,28.3l-4.4,7.3c0,0,2.2,6.5,3.1,6.8
	c1,0.2,13.8,2.2,13.8,2.2s2.4,11.8,15.6,13.7c8.1,1.1,17.1-6.7,17.4-12.5c13.6-0.2,30.8,0,30.8,0s2.1,9.8,10.3,10.2
	C124.1,100.6,113.7,22,113.7,22z"/>
<path class="st2" d="M142.7,79.7v-33c0,0-3.4-21.8-21.1-21.8s-68.1,0-68.1,0s-16.4,1.8-17.6,30.8c-0.2,22.5,0,23.7,0,23.7L69,84
	h41.2L142.7,79.7z"/>
<path class="st3" d="M141,84.1h-13.4c-2.2,0-3.9-1.8-3.9-3.9v-0.8c0-2.2,1.8-3.9,3.9-3.9H141c2.2,0,3.9,1.8,3.9,3.9v0.8
	C144.9,82.4,143.1,84.1,141,84.1z"/>
<path class="st3" d="M49.5,84.1H36.1c-2.2,0-3.9-1.8-3.9-3.9v-0.8c0-2.2,1.8-3.9,3.9-3.9h13.4c2.2,0,3.9,1.8,3.9,3.9v0.8
	C53.4,82.4,51.7,84.1,49.5,84.1z"/>
<rect x="56" y="79.8" transform="matrix(-1 -4.487978e-11 4.487978e-11 -1 177.3488 163.9618)" class="st3" width="65.3" height="4.3"/>
<circle class="st0" cx="121.6" cy="84.1" r="11.6"/>
<circle class="st4" cx="121.6" cy="84.1" r="5.8"/>
<circle class="st0" cx="57.3" cy="84.1" r="11.6"/>
<circle class="st4" cx="57.3" cy="84.1" r="5.8"/>
<path class="st5" d="M125.6,34.3c0,0,10.9,2.7,8.7,19.7c-3.7,0-8.5,0-8.5,0"/>
<rect x="105.5" y="33.1" transform="matrix(-1 -4.467328e-11 4.467328e-11 -1 227.0902 86.8877)" class="st5" width="16.2" height="20.7"/>
<rect x="85.5" y="33.1" transform="matrix(-1 -4.467328e-11 4.467328e-11 -1 187.073 86.8877)" class="st5" width="16.2" height="20.7"/>
<rect x="65.4" y="33.1" transform="matrix(-1 -4.472967e-11 4.472967e-11 -1 147.0559 86.8877)" class="st5" width="16.2" height="20.7"/>
<path class="st5" d="M61.7,54H43.4l1.8-9.9c0,0,1-11.4,14.1-11c2.1,0,2.5-0.1,2.5-0.1V54z"/>
<path class="st6" d="M43.5,70.2h0.4c1,0,1.8-0.8,1.8-1.8v-4.9c0-1-0.8-1.8-1.8-1.8h-0.4c-1,0-1.8,0.8-1.8,1.8v4.9
	C41.7,69.4,42.5,70.2,43.5,70.2z"/>
</svg>
