<?xml version="1.0" encoding="utf-8"?>
<!-- Generator: Adobe Illustrator 20.0.0, SVG Export Plug-In . SVG Version: 6.00 Build 0)  -->
<svg version="1.1" xmlns="http://www.w3.org/2000/svg" xmlns:xlink="http://www.w3.org/1999/xlink" x="0px" y="0px"
	 viewBox="0 0 164.8 140.6" style="enable-background:new 0 0 164.8 140.6;" xml:space="preserve">
<style type="text/css">
	.st0{display:none;}
	.st1{display:inline;fill:#2E3949;}
	.st2{fill:#00A995;}
	.st3{fill:#FFFFFF;}
	.st4{fill:#F6B987;}
	.st5{fill:#2E3949;}
	.st6{fill:#C5C7CD;}
	.st7{fill:#B25758;}
	.st8{opacity:0.1;}
</style>
<g id="Vrstva_1" class="st0">
	<rect x="-15.3" class="st1" width="195.2" height="166.9"/>
</g>
<g id="Vrstva_2">
	<circle class="st2" cx="62" cy="78.4" r="61.2"/>
	<path class="st3" d="M122.1,93.8l-1,3.1c0,0,0,0-1.4,2.7c-2.5-5.3-4-8.3-10.7-8.3c-6.7,1.8-63.8,17.8-63.8,17.8L37,99.4l1.6-4.8
		c0,0-8.8-24.2-3.2-30.7c-3.2-6.2-18.1-27.6-18.1-27.6l6.4-6.2l37.1,46.8c0,0,40,4.4,41,4.1c1.1-0.3,21.7,5.7,21.7,5.7l-1.4,2.9
		L122.1,93.8z"/>
	<path class="st3" d="M58,17.1l14.4,32.5l45.2,2.9c0,0,1.5,2.3,2.6,5.7c3,9.3,0.2,14.8,0.2,14.8l-7.1,1.6l-51.4-8.8
		c0,0-13.9-47.4-12.6-47.6C50.6,17.8,58,17.1,58,17.1z"/>
	<path class="st4" d="M13.4,15.9l30.9,54.3c0,0,5.4,1.6,17.5-4.4c6.8-3.4,10.8-5.7,10-7.3C71,56.9,45.3,0.3,45.3,0.3
		s-3.8,4.4-7.7,10.4C30,22.1,19,9.5,13.4,15.9z"/>
	<path class="st5" d="M40.4,68.1c0,0,7.3,5.4,21.4-2.3C73,59.6,75.3,54.9,75.3,54.9h6.2c0,0-2.9,5.3,0,6.8c2.9,1.5,3.3-6.8,3.3-6.8
		l10.6,0.9c0,0-2.2,7.9,0.7,8.1c2.9,0.2,2.7-7.5,2.7-7.5l9.4,0.8c0,0-2,7.9,0.9,8.1s2.5-7.5,2.5-7.5s10.3,0.7,13.4-0.7
		c1.9,3.1,6.3,10.8,6.3,10.8l-11.6,8L43.7,97l-3.3-13.2C40.4,83.7,36.2,67.6,40.4,68.1z"/>
	<path class="st6" d="M124.9,57.1c0,0,8.2-7.5,16.6-7.6c8.3-0.1,13.1,9.9,13.1,9.9l-8.2,8.8l-18.8,13.2l-81.1,22.5
		c0,0-4.3-5-3.5-6.1l0.8-1.1l75.9-21l11.6-8L124.9,57.1z"/>
	<path class="st7" d="M110,86.5l17.5-4.9l4.3-3c0,0-7.1,8.6-0.6,17.3s18.5,22.3,29.2,24c-29.5,0.1-41.8,0.4-41.8,0.4
		s12.1-2.6,10-11.5C123.5,86.6,110,86.5,110,86.5z"/>
	<path class="st8" d="M107.4,119.9c0,0-15.7,20-45.2,19.9s-43.9-18.5-43.9-18.5L107.4,119.9z"/>
</g>
</svg>
