<?xml version="1.0" encoding="utf-8"?>
<!-- Generator: Adobe Illustrator 20.0.0, SVG Export Plug-In . SVG Version: 6.00 Build 0)  -->
<svg version="1.1" id="Vrstva_1" xmlns="http://www.w3.org/2000/svg" xmlns:xlink="http://www.w3.org/1999/xlink" x="0px" y="0px"
	 viewBox="0 0 129 121.1" style="enable-background:new 0 0 129 121.1;" xml:space="preserve">
<style type="text/css">
	.st0{fill:#00A995;}
	.st1{fill:#FFFFFF;}
	.st2{clip-path:url(#SVGID_2_);fill:#FFFFFF;}
	.st3{fill:#CECECD;}
	.st4{fill:#AEAEAF;}
	.st5{fill:#AF504E;}
	.st6{fill:#2E3949;}
</style>
<circle class="st0" cx="68.6" cy="60.6" r="59.7"/>
<polygon class="st1" points="5.5,19.2 4.1,34.3 11.4,37.4 18.2,28.3 "/>
<g>
	<defs>
		<circle id="SVGID_1_" cx="68.5" cy="60.6" r="59.7"/>
	</defs>
	<clipPath id="SVGID_2_">
		<use xlink:href="#SVGID_1_"  style="overflow:visible;"/>
	</clipPath>
	<polygon class="st2" points="24.8,14.3 100.3,21.1 92.5,87.6 -4.6,80.4 -8.4,86.3 -0.7,91.2 8.1,32.5 	"/>
</g>
<path class="st1" d="M12.5,21.1l-1.1,13.1c0,0,6.7,5.3,6.9,4.7s4.5-13.3,4.5-13.3L12.5,21.1z"/>
<path class="st3" d="M46.2,56.5L4.9,28.1L0,67.8c-0.3,2.4,1.4,4.6,3.7,4.9l79.2,10.3c2.3,0.3,4.5-1.4,4.8-3.8l4.8-39.7L46.2,56.5z"
	/>
<path class="st4" d="M89.5,26.5L10.3,16.2c-2.1-0.3-4.1,1-4.8,3c-0.7,2.1,0,4.4,1.8,5.6l37.2,25.3c0.7,0.5,1.6,0.8,2.5,0.8
	c0.5,0,1-0.1,1.5-0.3l42-15c2-0.7,3.3-2.8,3-4.9C93.2,28.5,91.6,26.8,89.5,26.5z"/>
<path class="st5" d="M56.6,55.5c-0.7,5.5-5.8,9.4-11.5,8.7c-5.7-0.7-9.8-5.8-9.1-11.3s5.8-9.4,11.5-8.7C53.2,44.9,57.2,50,56.6,55.5
	z"/>
<polygon class="st5" points="20.4,98.4 3,96.1 9.3,87.6 26.7,89.9 "/>
<polygon class="st6" points="50.6,102.5 33.2,100.1 39.5,91.6 56.9,93.9 "/>
<polygon class="st5" points="81.3,106.6 63.8,104.2 70.2,95.7 87.6,98 "/>
<polygon class="st6" points="111.5,110.6 94.1,108.3 100.4,99.8 117.8,102.1 "/>
</svg>
