<?xml version="1.0" encoding="utf-8"?>
<!-- Generator: Adobe Illustrator 20.0.0, SVG Export Plug-In . SVG Version: 6.00 Build 0)  -->
<svg version="1.1" id="Vrstva_1" xmlns="http://www.w3.org/2000/svg" xmlns:xlink="http://www.w3.org/1999/xlink" x="0px" y="0px"
	 viewBox="0 0 173.8 237.4" style="enable-background:new 0 0 173.8 237.4;" xml:space="preserve">
<style type="text/css">
	.st0{opacity:0.35;fill:url(#SVGID_1_);}
	.st1{fill:#EAEAEA;}
	.st2{fill:#FFFFFF;}
	.st3{fill:#964242;}
	.st4{fill:#AF4F4E;}
	.st5{opacity:0.1;}
	.st6{fill:#F6B987;}
	.st7{fill:#2E3949;}
	.st8{opacity:0.1;fill:#FFFFFF;}
	.st9{opacity:0.2;}
	.st10{opacity:0.3;fill:#FFFFFF;}
</style>
<linearGradient id="SVGID_1_" gradientUnits="userSpaceOnUse" x1="104.072" y1="173.3272" x2="166.6678" y2="110.7314">
	<stop  offset="0" style="stop-color:#231F20"/>
	<stop  offset="0.4334" style="stop-color:#0F0D0E;stop-opacity:0.3814"/>
	<stop  offset="0.7007" style="stop-color:#000000;stop-opacity:0"/>
</linearGradient>
<path class="st0" d="M133.4,75.2l-3,29c0,0,15.8,0.3,15.1,8.2c-0.6,7.9,0,26.9,0,26.9s-13.4,23-25,28.8c-11.6,5.7-8.9,11-8.9,11h6.5
	c0,0-3.2,20.5-2.1,20.5c1.1,0,6.8,1.6,6.8,1.6l-3.2,37c0,0-19.4,0-22.4,0c-1.3,0-2.9-75.3-2.9-75.3l28.5-88.4L133.4,75.2z"/>
<ellipse class="st1" cx="119.4" cy="51.6" rx="35.6" ry="36.8"/>
<ellipse class="st2" cx="119" cy="48.8" rx="32.5" ry="33.6"/>
<ellipse class="st3" cx="119.4" cy="47.4" rx="24.8" ry="25.7"/>
<ellipse class="st4" cx="119" cy="45" rx="22.5" ry="23.2"/>
<path class="st5" d="M130.8,43.2c2.8,2.7,4.9,14.6-1.8,14.8c-6.7,0.2-18.9-1.7-12.5-12.6C121.3,37.2,127.9,40.5,130.8,43.2z"/>
<path class="st6" d="M120.4,104.8c0,0-0.2-1.9,0.4-8.7c1.3-15.1,9.5-44.6,9.3-46.7c-0.2-1.7,1.9-8.3-4.7-9.2s-10.2,4.2-10.7,8.4
	s-11,46.1-11,46.1S89.3,89.2,85.9,96c-11.5-0.6-14.6-2.4-18.9,4.7c-8.7-0.8-14.5,1.9-16.5,9.9s-10,31.4,6.3,51.2
	c-0.1,3-0.7,5.7-0.7,5.7s23.2,0.3,44.9,5.9c-0.3-2.8,0.7-5.1,0.7-5.1s17.6-5.3,30-31.8c1.7-23.9,1.1-29.6-3.9-30.4
	C123.1,105.4,120.4,104.8,120.4,104.8z"/>
<rect x="47.5" y="169.2" transform="matrix(0.9935 0.1135 -0.1135 0.9935 21.1394 -7.7264)" class="st7" width="61.9" height="25.2"/>
<rect x="47.7" y="165.9" transform="matrix(0.9935 0.1135 -0.1135 0.9935 20.5828 -4.4959)" class="st8" width="4.2" height="25.2"/>
<rect x="55.6" y="166.8" transform="matrix(0.9935 0.1135 -0.1135 0.9935 20.737 -5.3909)" class="st8" width="4.2" height="25.2"/>
<rect x="64" y="167.8" transform="matrix(0.9935 0.1135 -0.1135 0.9935 20.9001 -6.3377)" class="st8" width="4.2" height="25.2"/>
<rect x="72.3" y="168.7" transform="matrix(0.9935 0.1135 -0.1135 0.9935 21.0623 -7.2789)" class="st8" width="4.2" height="25.2"/>
<rect x="80.3" y="169.6" transform="matrix(0.9935 0.1135 -0.1135 0.9935 21.2165 -8.1739)" class="st8" width="4.2" height="25.2"/>
<rect x="88.7" y="170.6" transform="matrix(0.9935 0.1135 -0.1135 0.9935 21.3796 -9.1207)" class="st8" width="4.2" height="25.2"/>
<rect x="97" y="171.5" transform="matrix(0.9935 0.1135 -0.1135 0.9935 21.5418 -10.0619)" class="st8" width="4.2" height="25.2"/>
<rect x="105" y="172.4" transform="matrix(0.9935 0.1135 -0.1135 0.9935 21.696 -10.9569)" class="st8" width="4.2" height="25.2"/>
<path class="st9" d="M108.4,192.4l0.4-3c0,0-43.3-1.6-61-12.4c-1.7,11.1-0.6,6.2-0.6,6.2L108.4,192.4z"/>
<polygon class="st7" points="107.6,237.4 111.8,191.9 42.7,182.5 35.2,237.4 "/>
<path class="st5" d="M67.1,100.7c0,0-1.2,3.1-1.3,4.1c-1.4-2-0.9-4.2-6.6-4.8C67.1,100.7,67.1,100.7,67.1,100.7z"/>
<path class="st5" d="M85.9,96c0,0-1.4,2.9-1.5,3.9c-2-1.2-2.7-3.9-8.3-4.5C84.1,95.9,85.9,96,85.9,96z"/>
<path class="st5" d="M103.6,94.8c0,0-1.3,3.6-1.4,4.6c-2-1.2,0.8-4.3-4.8-6.5C100.5,93.7,103.6,94.8,103.6,94.8z"/>
<path class="st5" d="M48.2,121.5c0,0-3.1,27.9,15,40c-0.6,3.7-0.8,5.6-0.8,5.6l-6.4-0.4l0.9-5C57,161.7,42.6,148.6,48.2,121.5z"/>
<path class="st5" d="M113.8,76.2c0,0,1.2,2.2,6.1,0.9C124.8,75.7,108.9,81.8,113.8,76.2z"/>
<path class="st10" d="M127.2,51.3c0,0-3.5,2.1-8.2,0C114.4,49.2,128,33.5,127.2,51.3z"/>
<path class="st5" d="M120.4,104.8l-1.6,24.1c0,0,0.5-4.8,5.5-5.5c-4.4-1.8-2.5-4.3,1-8.8C135.1,102,118.8,123.9,120.4,104.8z"/>
</svg>
