<?xml version="1.0" encoding="utf-8"?>
<!-- Generator: Adobe Illustrator 20.0.0, SVG Export Plug-In . SVG Version: 6.00 Build 0)  -->
<svg version="1.1" id="Vrstva_1" xmlns="http://www.w3.org/2000/svg" xmlns:xlink="http://www.w3.org/1999/xlink" x="0px" y="0px"
	 viewBox="0 0 153.7 124" style="enable-background:new 0 0 153.7 124;" xml:space="preserve">
<style type="text/css">
	.st0{fill:#F6D4A9;}
	.st1{clip-path:url(#SVGID_2_);fill:#FFFFFF;}
	.st2{fill:#2E3949;}
</style>
<ellipse transform="matrix(0.3522 -0.9359 0.9359 0.3522 -17.4442 98.0932)" class="st0" cx="62.1" cy="61.6" rx="61.2" ry="61.2"/>
<g>
	<defs>
		
			<ellipse id="SVGID_1_" transform="matrix(0.3522 -0.9359 0.9359 0.3522 -17.4442 98.0932)" cx="62.1" cy="61.6" rx="61.2" ry="61.2"/>
	</defs>
	<clipPath id="SVGID_2_">
		<use xlink:href="#SVGID_1_"  style="overflow:visible;"/>
	</clipPath>
	<path class="st1" d="M121.3,86.2c0,0-13-6.5-16.8-15.6c-2.6-6.1-2.5-22-5.9-28.1c-1.6-3-8.3,0.4-8.3,0.4l-9.2,10.7l2.3,10.9
		l-19.9,9.6l-7.1-8.8l-12.4,2.2l-9-18.4l8.9-9.3l0.1-13.7l18-7.7l8.3,9.7l13.1-1c0,0,13-14.4,24.1-17.7c4.8-1.4,25.5,13.1,14.6,26.4
		c6.3,23.2,1.8,33.2,1.8,33.2S126.2,74.4,121.3,86.2z"/>
</g>
<path class="st2" d="M83.1,35.9l0.8,1.9c1.8,3.9,0,8.5-3.9,10.3l-27,12.2c-3.9,1.8-8.5,0-10.3-3.9L42,54.5c-1.8-3.9,0-8.5,3.9-10.3
	l27-12.2C76.8,30.2,81.4,32,83.1,35.9z"/>
<path class="st2" d="M73.3,66.3l-1.9,0.8c-3.9,1.8-8.5,0-10.3-3.9l-12.2-27c-1.8-3.9,0-8.5,3.9-10.3l1.9-0.8c3.9-1.8,8.5,0,10.3,3.9
	l12.2,27C78.9,59.9,77.2,64.5,73.3,66.3z"/>
<ellipse transform="matrix(0.9108 -0.4127 0.4127 0.9108 -4.4007 41.0427)" class="st2" cx="92.8" cy="30.7" rx="5.5" ry="5.5"/>
<ellipse transform="matrix(0.9108 -0.4127 0.4127 0.9108 -8.6452 48.2552)" class="st2" cx="107.4" cy="44.1" rx="5.5" ry="5.5"/>
<ellipse transform="matrix(0.9108 -0.4127 0.4127 0.9108 -15.6088 51.0343)" class="st2" cx="110.3" cy="61.6" rx="5.5" ry="5.5"/>
<ellipse transform="matrix(0.9108 -0.4127 0.4127 0.9108 -21.2136 57.005)" class="st2" cx="121.3" cy="77.6" rx="5.5" ry="5.5"/>
<ellipse transform="matrix(0.9108 -0.4127 0.4127 0.9108 -19.8914 64.0027)" class="st2" cx="138.2" cy="78" rx="5.5" ry="5.5"/>
<ellipse transform="matrix(0.9108 -0.4127 0.4127 0.9108 -12.16 65.6123)" class="st2" cx="145.8" cy="61" rx="5.5" ry="5.5"/>
<ellipse transform="matrix(0.9108 -0.4127 0.4127 0.9108 6.314 52.8329)" class="st2" cx="125.5" cy="11.8" rx="5.5" ry="5.5"/>
<ellipse transform="matrix(0.9108 -0.4127 0.4127 0.9108 3.8556 60.7219)" class="st2" cx="142.5" cy="21.4" rx="5.5" ry="5.5"/>
<ellipse transform="matrix(0.9108 -0.4127 0.4127 0.9108 -4.345 64.4112)" class="st2" cx="146.9" cy="42.3" rx="5.5" ry="5.5"/>
<ellipse transform="matrix(0.9108 -0.4127 0.4127 0.9108 1.8048 46.6171)" class="st2" cx="108.8" cy="19.1" rx="5.5" ry="5.5"/>
</svg>
