<?xml version="1.0" encoding="utf-8"?>
<!-- Generator: Adobe Illustrator 20.0.0, SVG Export Plug-In . SVG Version: 6.00 Build 0)  -->
<svg version="1.1" id="Vrstva_1" xmlns="http://www.w3.org/2000/svg" xmlns:xlink="http://www.w3.org/1999/xlink" x="0px" y="0px"
	 viewBox="0 0 150 102.8" style="enable-background:new 0 0 150 102.8;" xml:space="preserve">
<style type="text/css">
	.st0{fill:#2E3949;}
</style>
<g id="logo_2_">
	<polygon class="st0" points="43.7,82.8 22.1,85.7 20.5,63.4 38.4,57.5 34.4,50.3 33.1,50.5 18.4,52.6 13.5,33.4 34.6,30.8 
		29.9,19.4 1.9,26.5 14.1,99.8 46.4,90.4 	"/>
	<path class="st0" d="M83.5,68.7c0-1.4-0.1-2.7-0.3-4c-1-5.6-3.7-9.7-7.2-12.5c-3.5-2.8-7.7-4.5-12.2-5.9c-3.6-1.1-6.4-2.3-8.4-4
		c-2-1.6-3.3-3.7-3.9-6.9c-0.1-0.5-0.1-0.9-0.1-1.4c0.1-3.4,2.2-6.8,8-8c1-0.2,2-0.3,2.9-0.3c2.2,0,4,0.5,5.2,1l2.5,1.1l1-11.6
		l-1.3-0.5c-1.6-0.7-3.7-1-6.2-1c-1.7,0-3.6,0.1-5.6,0.6c-10.4,1.8-17.1,9.8-17,19.4c0,1.4,0.1,2.7,0.3,4c1,5.6,3.7,9.4,7.1,12
		c3.4,2.7,7.3,4.4,11.2,6.7c3.1,1.8,6,3.6,7.9,5.5c2.1,1.9,3.4,4,3.9,7c0.1,0.7,0.2,1.4,0.2,2.1c-0.1,4.8-2.9,9-8.8,10.1
		c-0.8,0.1-1.6,0.2-2.5,0.2c-2.6,0-5.2-0.7-7.1-1.4l-1.8-0.8l-0.8,1.8L47.7,88l1.7,0.8c2.5,1.2,6.2,2,10.2,2c1.5,0,3.1-0.1,4.6-0.4
		C75.2,88.5,83.5,79.6,83.5,68.7z"/>
	<polygon class="st0" points="137.8,75 139.3,75 146.4,74.9 130.8,1.8 116.5,7.9 114.3,58.8 91.7,8.3 80.9,12.7 88.2,84 100.9,85.2 
		93.2,36.1 113.6,79.1 121.6,80.6 126.1,27.7 	"/>
</g>
</svg>
