<?xml version="1.0" encoding="utf-8"?>
<!-- Generator: Adobe Illustrator 20.0.0, SVG Export Plug-In . SVG Version: 6.00 Build 0)  -->
<svg version="1.1" id="Vrstva_1" xmlns="http://www.w3.org/2000/svg" xmlns:xlink="http://www.w3.org/1999/xlink" x="0px" y="0px"
	 viewBox="0 0 150 102.8" style="enable-background:new 0 0 150 102.8;" xml:space="preserve">
<style type="text/css">
	.st0{fill:#2E3949;}
	.st1{fill:none;}
</style>
<g id="logo_1_">
	<polygon class="st0" points="16.1,99.4 16,98.7 4.1,27.2 3.9,26.8 4.5,26.6 31.9,19.7 32.3,19.6 32.5,20.1 37.1,31.2 37.4,31.8 
		36.6,32 16.7,34.4 21.2,52 35,49.9 36.3,49.7 36.7,49.7 36.9,50 40.8,57.1 41.2,57.7 40.5,57.9 23.4,63.5 24.8,84.3 45.4,81.6 
		45.8,81.5 46,81.9 48.7,89.3 48.9,89.9 48.3,90.1 16.7,99.2 	"/>
	<path class="st0" d="M32,20.3l4.5,11.1L16,33.9l4.8,18.8l14.3-2.1l1.3-0.2l3.9,7.1l-17.4,5.7l1.5,21.7l21.1-2.7l2.7,7.4l-31.6,9.1
		l-12-71.5L32,20.3z M32.7,18.9l-0.9,0.3L4.3,26.1l-1.1,0.2l0.2,1.1l12,71.5l0.2,1.3l1.2-0.3l31.6-9.1l1.2-0.3l-0.4-1.1l-2.7-7.4
		l-0.3-0.9L45.2,81l-19.9,2.6L24,64l16.6-5.5l1.3-0.4l-0.7-1.2l-3.9-7.1l-0.4-0.7l-0.8,0.1l-1.3,0.2l-13.3,2L17.3,35l19.3-2.3
		l1.5-0.2L37.5,31l-4.5-11.1L32.7,18.9z"/>
	<path class="st0" d="M60.9,90.5L60.9,90.5L60.9,90.5c-3.8,0-7.5-0.7-10.2-2l-1.7-0.8l-0.5-0.3l0.2-0.5l2.6-6l0.7-1.7l0.2-0.5
		l0.5,0.2l1.7,0.7c2,0.8,4.5,1.3,6.7,1.3c0.9,0,1.7-0.1,2.4-0.2c5.1-1,8.1-4.4,8.2-9.4c0-0.7-0.1-1.3-0.2-1.9
		c-0.5-2.5-1.5-4.5-3.6-6.5c-1.9-1.7-4.4-3.4-7.6-5.3c-1.3-0.7-2.5-1.4-3.7-2.1c-2.6-1.4-5-2.7-7.3-4.5c-3.9-3-6.3-7-7.2-12
		c-0.3-1.3-0.4-2.7-0.4-4c-0.1-9.8,6.8-17.6,17.1-19.5c1.9-0.3,3.7-0.5,5.5-0.5c2.7,0,4.7,0.3,6.4,1l1.3,0.5l0.4,0.1l-0.1,0.4
		l-0.9,11.3l-0.1,0.8L70.8,29l-2.4-1.1c-1.3-0.5-3.1-0.9-4.9-0.9c-0.9,0-1.9,0.1-2.8,0.3c-6.4,1.2-7.4,5.1-7.4,7.3
		c0,0.4,0.1,0.8,0.1,1.2c0.5,2.9,1.6,4.7,3.6,6.4c1.7,1.4,4.3,2.6,8,3.7c4.1,1.3,8.6,3,12.1,5.9c3.8,3.1,6.3,7.2,7.2,12.5
		c0.3,1.3,0.4,2.7,0.4,4c0,10.8-8,19.7-19.3,21.8C64.1,90.3,62.6,90.5,60.9,90.5"/>
	<path class="st0" d="M64.6,15.6c2.5,0,4.5,0.3,6.1,1l1.3,0.5L71,28.4l-2.4-1.1c-1.1-0.5-2.9-0.9-5.1-0.9l0,0
		c-0.9,0-1.9,0.1-2.9,0.3c-5.7,1.1-7.8,4.5-7.8,7.8c0,0.5,0.1,0.9,0.1,1.3c0.6,3.1,1.9,5.1,3.8,6.8c1.9,1.6,4.7,2.8,8.2,3.9
		c4.3,1.4,8.5,3,11.9,5.7c3.4,2.7,6,6.7,7,12.2c0.3,1.3,0.3,2.6,0.3,3.9c0,10.7-8.1,19.3-18.8,21.3C64,89.9,62.5,90,61,90
		c-3.9,0-7.5-0.8-10-1.9l-1.7-0.8l2.6-6l0.7-1.7l1.7,0.7c1.9,0.7,4.4,1.4,7,1.4l0,0c0.9,0,1.7-0.1,2.5-0.2c5.8-1.1,8.6-5.2,8.6-9.9
		c0-0.7-0.1-1.4-0.2-2.1c-0.5-2.9-1.8-4.9-3.8-6.8c-1.9-1.9-4.7-3.5-7.8-5.3c-3.8-2.3-7.6-3.9-11-6.6c-3.3-2.5-5.9-6.2-7-11.7
		c-0.3-1.3-0.3-2.6-0.3-3.9C42.4,25.8,49,18,59.1,16.2C61.1,15.7,63,15.6,64.6,15.6 M64.6,14.5L64.6,14.5L64.6,14.5
		c-1.8,0-3.7,0.2-5.7,0.5c-10.6,1.9-17.6,9.9-17.6,20.1c0,1.3,0.1,2.7,0.4,4.1c0.9,5.2,3.3,9.3,7.4,12.4c2.3,1.8,4.7,3.1,7.4,4.5
		c1.2,0.7,2.5,1.3,3.7,2.1c3.2,1.9,5.7,3.5,7.6,5.2c1.9,1.9,3,3.7,3.5,6.2c0.1,0.6,0.2,1.3,0.2,1.9c-0.1,4.6-2.9,7.8-7.7,8.8
		c-0.7,0.1-1.5,0.2-2.3,0.2l0,0c-2.1,0-4.5-0.5-6.5-1.3l-1.7-0.7l-1.1-0.4l-0.5,1l-0.7,1.7l-2.6,6l-0.5,1l1,0.5l1.7,0.8
		c2.7,1.3,6.6,2,10.4,2.1c1.6,0,3.2-0.1,4.7-0.4c5.5-1,10.5-3.7,14-7.7c3.7-4.1,5.7-9.3,5.7-14.6c0-1.3-0.1-2.7-0.4-4.1
		c-0.9-5.3-3.5-9.7-7.4-12.8c-3.7-2.9-8.1-4.6-12.3-5.9c-3.7-1.1-6.2-2.3-7.9-3.7c-1.9-1.5-2.9-3.3-3.4-6.1
		c-0.1-0.4-0.1-0.7-0.1-1.1c0.1-3.5,2.5-5.8,6.9-6.7c0.9-0.1,1.8-0.3,2.7-0.3c1.7,0,3.4,0.3,4.7,0.9l2.4,1.1l1.5,0.6l0.1-1.6
		L73,17.3l0.1-0.8l-0.7-0.3L71,15.7C69.5,14.8,67.4,14.5,64.6,14.5"/>
	<polygon class="st0" points="101.9,85.1 101.1,85 88.8,83.7 88.3,83.7 88.2,83.3 81.3,13.8 81.2,13.3 81.6,13.2 92,8.8 92.6,8.6 
		92.8,9.1 113.9,56.2 116,9 116,8.6 116.3,8.4 130.3,2.6 130.9,2.3 131,3 146.2,74.3 146.5,75 145.7,75 138.8,75 137.2,75 136.8,75 
		136.7,74.6 126.1,31.7 122,80 121.9,80.6 121.3,80.4 113.5,79 113.2,79 113.1,78.7 94.9,40.3 101.7,84.3 	"/>
	<path class="st0" d="M130.5,3.1l15.2,71.3l-7,0.1h-1.5l-11.4-46.2L121.5,80l-7.8-1.4l-19.9-42l7.5,47.9l-12.4-1.2l-7.1-69.6
		l10.5-4.3l22.1,49.3L116.6,9L130.5,3.1z M131.3,1.5L130,2l-13.9,5.9l-0.7,0.3v0.7l-2,44.9L93.4,8.9l-0.5-1l-1,0.4l-10.5,4.3
		L80.6,13l0.1,0.9l7,69.5l0.1,0.9l0.9,0.1l12.4,1.2l1.5,0.1l-0.2-1.5L96,44.1l16.5,34.8l0.3,0.5l0.6,0.1l7.8,1.4l1.2,0.2l0.1-1.3
		l3.8-44.8l9.8,39.5l0.2,0.9h0.9h1.5l7-0.1h1.4l-0.3-1.4L131.6,2.8L131.3,1.5z"/>
	<rect x="2.9" y="1.5" class="st1" width="146.7" height="119.3"/>
</g>
</svg>
