<?xml version="1.0" encoding="UTF-8" standalone="no"?>
<!-- Generator: Adobe Illustrator 20.0.0, SVG Export Plug-In . SVG Version: 6.00 Build 0)  -->

<svg
   xmlns:dc="http://purl.org/dc/elements/1.1/"
   xmlns:cc="http://creativecommons.org/ns#"
   xmlns:rdf="http://www.w3.org/1999/02/22-rdf-syntax-ns#"
   xmlns:svg="http://www.w3.org/2000/svg"
   xmlns="http://www.w3.org/2000/svg"
   xmlns:sodipodi="http://sodipodi.sourceforge.net/DTD/sodipodi-0.dtd"
   xmlns:inkscape="http://www.inkscape.org/namespaces/inkscape"
   version="1.1"
   id="Vrstva_1"
   x="0px"
   y="0px"
   viewBox="0 0 298.5 222.60001"
   xml:space="preserve"
   inkscape:version="0.91 r13725"
   sodipodi:docname="logo_esm_altotting_white.svg"
   width="298.5"
   height="222.60001"><metadata
     id="metadata43"><rdf:RDF><cc:Work
         rdf:about=""><dc:format>image/svg+xml</dc:format><dc:type
           rdf:resource="http://purl.org/dc/dcmitype/StillImage" /><dc:title></dc:title></cc:Work></rdf:RDF></metadata><defs
     id="defs41" /><sodipodi:namedview
     pagecolor="#ffffff"
     bordercolor="#666666"
     borderopacity="1"
     objecttolerance="10"
     gridtolerance="10"
     guidetolerance="10"
     inkscape:pageopacity="0"
     inkscape:pageshadow="2"
     inkscape:window-width="1600"
     inkscape:window-height="876"
     id="namedview39"
     showgrid="false"
     fit-margin-top="0"
     fit-margin-left="0"
     fit-margin-right="0"
     fit-margin-bottom="0"
     inkscape:zoom="1.1436517"
     inkscape:cx="290.99714"
     inkscape:cy="251.11693"
     inkscape:window-x="0"
     inkscape:window-y="24"
     inkscape:window-maximized="1"
     inkscape:current-layer="Vrstva_1" /><style
     type="text/css"
     id="style3">
	.st0{fill:#FFFFFF;}
</style><g
     id="g4171"
     transform="translate(-40.3,-30.3)"><path
       id="path5"
       d="m 218.2,241.5 -1.3,5.2 -4.4,0 5.7,-20.2 5.6,0 5.9,20.2 -4.6,0 -1.5,-5.2 -5.4,0 z m 4.8,-3.5 -1.2,-4.3 c -0.3,-1.2 -0.6,-2.7 -0.9,-3.9 l -0.1,0 c -0.3,1.2 -0.6,2.7 -0.8,3.9 l -1.1,4.3 4.1,0 z"
       class="st0"
       inkscape:connector-curvature="0"
       style="fill:#ffffff" /><rect
       id="rect7"
       height="21.299999"
       width="4.1999998"
       class="st0"
       y="225.39999"
       x="231.89999"
       style="fill:#ffffff" /><path
       id="path9"
       d="m 244.3,228 0,4 3,0 0,3.4 -3,0 0,5.3 c 0,1.8 0.4,2.6 1.7,2.6 0.6,0 0.9,0 1.3,-0.1 l 0,3.5 c -0.5,0.2 -1.6,0.4 -2.7,0.4 -1.4,0 -2.5,-0.5 -3.2,-1.3 -0.8,-0.9 -1.2,-2.3 -1.2,-4.3 l 0,-6 -1.8,0 0,-3.5 1.8,0 0,-2.8 4.1,-1.2 z"
       class="st0"
       inkscape:connector-curvature="0"
       style="fill:#ffffff" /><path
       id="path11"
       d="m 256,247 c -4,0 -7.1,-2.8 -7.1,-7.6 0,-4.7 2.9,-7.8 7.3,-7.8 4.2,0 6.9,3.1 6.9,7.5 0.1,5.4 -3.4,7.9 -7.1,7.9 l 0,0 z m -2.7,-16.8 c -1.1,0 -1.9,-0.9 -1.9,-2 0,-1.2 0.8,-2 1.9,-2 1.1,0 1.8,0.9 1.8,2 0.1,1.1 -0.7,2 -1.8,2 l 0,0 z m 2.8,13.5 c 1.7,0 2.7,-1.8 2.7,-4.4 0,-2.2 -0.8,-4.4 -2.7,-4.4 -2,0 -2.8,2.2 -2.8,4.4 0,2.5 1,4.4 2.8,4.4 l 0,0 z m 2.8,-13.5 c -1.1,0 -1.9,-0.9 -1.9,-2 0,-1.2 0.8,-2 1.9,-2 1.1,0 1.9,0.9 1.9,2 0,1.1 -0.7,2 -1.9,2 l 0,0 z"
       class="st0"
       inkscape:connector-curvature="0"
       style="fill:#ffffff" /><path
       id="path13"
       d="m 270.6,228 0,4 3,0 0,3.4 -3,0 0,5.3 c 0,1.8 0.4,2.6 1.7,2.6 0.6,0 0.9,0 1.3,-0.1 l 0,3.5 c -0.5,0.2 -1.6,0.4 -2.7,0.4 -1.4,0 -2.5,-0.5 -3.2,-1.3 -0.8,-0.9 -1.2,-2.3 -1.2,-4.3 l 0,-6 -1.8,0 0,-3.5 1.8,0 0,-2.8 4.1,-1.2 z"
       class="st0"
       inkscape:connector-curvature="0"
       style="fill:#ffffff" /><path
       id="path15"
       d="m 280.8,228 0,4 3,0 0,3.4 -3,0 0,5.3 c 0,1.8 0.4,2.6 1.7,2.6 0.6,0 0.9,0 1.3,-0.1 l 0,3.5 c -0.5,0.2 -1.6,0.4 -2.7,0.4 -1.4,0 -2.5,-0.5 -3.2,-1.3 -0.8,-0.9 -1.2,-2.3 -1.2,-4.3 l 0,-6 -1.8,0 0,-3.5 1.8,0 0,-2.8 4.1,-1.2 z"
       class="st0"
       inkscape:connector-curvature="0"
       style="fill:#ffffff" /><path
       id="path17"
       d="m 288.4,230.1 c -1.4,0 -2.3,-1.1 -2.3,-2.4 0,-1.4 0.9,-2.4 2.4,-2.4 1.5,0 2.3,1.1 2.4,2.4 0,1.3 -1,2.4 -2.5,2.4 l 0,0 z m -2.1,1.9 4.2,0 0,14.7 -4.2,0 0,-14.7 z"
       class="st0"
       inkscape:connector-curvature="0"
       style="fill:#ffffff" /><path
       id="path19"
       d="m 294,236.7 c 0,-1.8 -0.1,-3.4 -0.1,-4.7 l 3.7,0 0.2,2 0.1,0 c 0.6,-1 1.9,-2.4 4.2,-2.4 2.8,0 4.9,2 4.9,6.3 l 0,8.7 -4.2,0 0,-8.1 c 0,-1.9 -0.6,-3.2 -2.1,-3.2 -1.2,0 -1.9,0.9 -2.2,1.7 -0.1,0.3 -0.1,0.7 -0.1,1.1 l 0,8.5 -4.4,0 0,-9.9 z"
       class="st0"
       inkscape:connector-curvature="0"
       style="fill:#ffffff" /><path
       id="path21"
       d="m 323.3,244.5 c 0,2.8 -0.5,5.1 -2.1,6.6 -1.5,1.4 -3.5,1.8 -5.5,1.8 -1.8,0 -3.7,-0.4 -4.9,-1.1 l 0.8,-3.5 c 0.9,0.5 2.3,1.1 4,1.1 2,0 3.5,-1.1 3.5,-3.9 l 0,-0.9 -0.1,0 c -0.8,1.2 -2.1,1.9 -3.7,1.9 -3.4,0 -5.8,-2.9 -5.8,-7.1 0,-4.7 2.8,-7.7 6.2,-7.7 1.9,0 3,0.9 3.7,2.1 l 0.1,0 0.1,-1.7 3.7,0 c -0.1,1 -0.1,2.2 -0.1,4.4 l 0,8 z m -4.3,-6.6 c 0,-0.3 0,-0.6 -0.1,-0.8 -0.3,-1.2 -1.1,-2 -2.3,-2 -1.6,0 -2.8,1.5 -2.8,4.2 0,2.2 1,3.9 2.8,3.9 1.1,0 2,-0.8 2.3,-1.8 0.1,-0.4 0.1,-0.8 0.1,-1.2 l 0,-2.3 z"
       class="st0"
       inkscape:connector-curvature="0"
       style="fill:#ffffff" /><path
       id="path23"
       d="m 100.6,69.1 9.4,23 -42.5,5.2 9.9,38.8 29.6,-4.5 2.7,-0.4 8.1,14.7 -36.1,11.9 3.1,44.9 43.7,-5.7 5.5,15.3 L 68.7,231.1 43.9,83.3 100.6,69.1 Z m 1.4,-2.8 -2,0.5 -56.7,14.2 -2.1,0.5 0.4,2.1 24.8,147.8 0.4,2.6 2.5,-0.7 65.3,-18.8 2.4,-0.7 -0.9,-2.4 -5.5,-15.3 -0.6,-1.8 -1.9,0.2 -41.2,5.5 -2.8,-40.6 34.4,-11.4 2.7,-0.9 -1.4,-2.5 -8.1,-14.7 -0.8,-1.4 -1.6,0.2 -2.7,0.4 -27.5,4.1 -8.7,-34.1 39.9,-4.9 3.1,-0.4 -1.2,-2.9 -9.4,-23 -0.8,-1.6 z"
       class="st0"
       inkscape:connector-curvature="0"
       style="fill:#ffffff" /><path
       id="path25"
       d="m 168,59.4 c 5.1,0 9.3,0.6 12.6,2 l 2.6,1.1 -2,23.4 -5,-2.2 c -2.4,-1 -6.1,-2 -10.5,-2 l 0,0 c -1.9,0 -3.9,0.2 -6,0.6 -11.8,2.3 -16.1,9.2 -16.2,16.2 0,0.9 0.1,1.8 0.3,2.8 1.2,6.6 3.8,10.6 7.8,13.9 4,3.3 9.8,5.8 17.1,8 9,2.9 17.6,6.3 24.7,11.9 7.1,5.6 12.4,13.8 14.5,25.1 0.5,2.7 0.7,5.5 0.7,8.1 0,22.1 -16.7,39.9 -38.9,43.9 -3.1,0.6 -6.2,0.8 -9.2,0.8 -8.1,0 -15.5,-1.6 -20.5,-4 l -3.4,-1.6 5.4,-12.5 1.5,-3.5 3.6,1.5 c 3.8,1.6 9.2,2.8 14.3,2.8 l 0.1,0 c 1.8,0 3.5,-0.1 5.2,-0.4 12.1,-2.3 17.7,-10.7 17.8,-20.5 0,-1.4 -0.1,-2.8 -0.4,-4.3 -1.1,-5.9 -3.8,-10.2 -7.8,-14.1 -4.1,-3.9 -9.6,-7.4 -16,-11.1 -7.9,-4.7 -15.8,-8.2 -22.7,-13.6 -6.8,-5.3 -12.4,-12.8 -14.4,-24.2 -0.5,-2.7 -0.8,-5.5 -0.8,-8.1 -0.1,-19.4 13.5,-35.4 34.4,-39.1 4,-0.6 7.8,-0.9 11.2,-0.9 m 0.1,-2.4 0,0 0,0 c -3.8,0 -7.7,0.4 -11.7,1.1 -21.9,3.9 -36.5,20.5 -36.4,41.4 0,2.8 0.3,5.7 0.8,8.5 1.9,10.8 6.9,19.2 15.2,25.7 4.7,3.7 9.8,6.5 15.2,9.4 2.5,1.4 5.1,2.8 7.6,4.3 6.9,4 11.9,7.2 15.6,10.7 4.1,3.9 6.2,7.8 7.2,12.8 0.2,1.3 0.3,2.6 0.3,3.8 -0.1,9.6 -5.9,16.2 -15.9,18.1 -1.5,0.3 -3.1,0.4 -4.7,0.4 l -0.1,0 c -4.4,0 -9.4,-1 -13.4,-2.7 l -3.6,-1.5 -2.1,-0.9 -0.9,2.1 -1.5,3.5 -5.4,12.5 -0.9,2.1 2.1,1 3.4,1.6 c 5.7,2.7 13.5,4.2 21.5,4.2 3.4,0 6.6,-0.3 9.6,-0.8 11.4,-2.1 21.7,-7.7 29.1,-15.9 7.6,-8.4 11.7,-19.2 11.7,-30.3 0,-2.8 -0.3,-5.7 -0.8,-8.5 -2,-11.1 -7.1,-20 -15.3,-26.5 -7.6,-6 -16.7,-9.5 -25.4,-12.3 -7.7,-2.3 -12.8,-4.7 -16.3,-7.6 -3.9,-3.2 -6,-7 -7,-12.6 -0.1,-0.8 -0.2,-1.6 -0.2,-2.3 0.1,-7.1 5.2,-12.1 14.3,-13.8 1.8,-0.3 3.7,-0.5 5.5,-0.5 3.5,0 7.1,0.7 9.6,1.8 l 5,2.2 3,1.3 0.3,-3.3 2,-23.4 0.1,-1.7 -1.6,-0.7 -2.6,-1.1 C 178.1,57.8 173.7,57 168.1,57"
       class="st0"
       inkscape:connector-curvature="0"
       style="fill:#ffffff" /><g
       id="g27"><polygon
         id="polygon29"
         points="40.3,70.9 40.3,217.9 65.2,217.9 42.7,83.5 42.5,82.5 43.6,82.2 88.7,70.9 "
         class="st0"
         style="fill:#ffffff" /><polygon
         id="polygon31"
         points="323.8,70.9 313.4,70.9 323.8,119.5 "
         class="st0"
         style="fill:#ffffff" /><polygon
         id="polygon33"
         points="273.1,70.9 237.4,70.9 269.9,143.5 "
         class="st0"
         style="fill:#ffffff" /><path
         id="path35"
         d="m 318.2,182.3 -0.9,0 -0.2,-0.9 -21.9,-88.6 -8.5,99.7 -0.1,1.3 -1.3,-0.2 -16.2,-2.9 -0.6,-0.1 -0.3,-0.5 -37.6,-79.5 14.2,91 0.2,1.5 -1.5,-0.2 -25.6,-2.5 -1,-0.1 -0.1,-1 -12.9,-128.4 -20.2,0 -1.2,15.1 -0.1,1.6 -1.5,-0.7 -5,-2.2 c -2.7,-1.2 -6.5,-1.9 -10.1,-1.9 -2,0 -3.9,0.2 -5.8,0.5 -13.1,2.6 -15.2,10.5 -15.2,15 0,0.8 0.1,1.7 0.2,2.5 1.1,5.9 3.3,9.8 7.4,13.2 3.6,3 8.9,5.4 16.7,7.8 8.6,2.8 17.6,6.2 25.1,12.1 7.9,6.3 12.9,15 14.9,25.8 0.5,2.8 0.8,5.6 0.8,8.3 0,22.3 -16.4,40.9 -39.8,45.1 -3,0.5 -6.1,0.8 -9.4,0.8 l 0,0 0,0 c -7.8,0 -15.5,-1.5 -21,-4.1 l -3.4,-1.6 -1,-0.5 0.5,-1 5.4,-12.5 1.5,-3.6 0.5,-1.1 1.1,0.4 3.6,1.5 c 4.2,1.7 9.4,2.7 13.9,2.7 1.8,0 3.5,-0.1 5,-0.4 10.6,-2 16.7,-9.1 16.9,-19.3 0,-1.3 -0.1,-2.7 -0.4,-4.1 -1,-5.3 -3.2,-9.3 -7.5,-13.5 -3.8,-3.7 -8.9,-6.9 -15.8,-10.9 -2.6,-1.5 -5.2,-2.9 -7.7,-4.3 -5.4,-2.9 -10.4,-5.7 -15.1,-9.3 -8.1,-6.3 -12.9,-14.4 -14.8,-24.9 -0.5,-2.8 -0.8,-5.6 -0.8,-8.3 -0.1,-11.3 4.3,-21.3 11.9,-28.7 l -30.5,0 8.5,20.8 0.6,1.4 -1.5,0.2 -41.2,5 9.3,36.4 28.6,-4.3 2.7,-0.4 0.8,-0.1 0.4,0.7 8.1,14.7 0.7,1.2 -1.3,0.4 -35.3,11.7 2.9,42.8 42.4,-5.5 0.9,-0.1 0.3,0.9 5.5,15.3 0.4,1.2 -1.2,0.3 -15.3,4.4 204.8,0 0,-35.6 -2.5,0 -3.4,0.5 z"
         class="st0"
         inkscape:connector-curvature="0"
         style="fill:#ffffff" /></g><path
       id="path37"
       d="m 304.2,33.5 31.6,147.5 -14.4,0.1 -3.1,0 -23.6,-95.6 -9.2,106.9 -16.2,-2.9 -41.1,-86.8 15.5,99.1 -25.6,-2.6 -14.5,-143.7 21.7,-9 45.6,102.1 4.6,-102.8 28.7,-12.3 z m 1.8,-3.2 -2.6,1.1 -28.8,12.2 -1.4,0.6 -0.1,1.5 -4.1,92.9 -41.5,-92.9 -0.9,-2.1 -2.1,0.9 -21.7,9 -1.6,0.7 0.2,1.7 14.5,143.6 0.2,1.9 1.9,0.2 25.6,2.6 3,0.3 -0.5,-3 -12.9,-83 34.2,72.1 0.5,1.1 1.2,0.2 16.2,2.9 2.6,0.5 0.2,-2.6 7.9,-92.6 20.1,81.7 0.4,1.8 1.9,0 3.1,0 14.4,-0.1 2.9,0 -0.6,-2.8 L 306.6,33.1 306,30.3 Z"
       class="st0"
       inkscape:connector-curvature="0"
       style="fill:#ffffff" /></g></svg>