<?xml version="1.0" encoding="UTF-8" standalone="no"?>
<!-- Generator: Adobe Illustrator 20.0.0, SVG Export Plug-In . SVG Version: 6.00 Build 0)  -->

<svg
   xmlns:dc="http://purl.org/dc/elements/1.1/"
   xmlns:cc="http://creativecommons.org/ns#"
   xmlns:rdf="http://www.w3.org/1999/02/22-rdf-syntax-ns#"
   xmlns:svg="http://www.w3.org/2000/svg"
   xmlns="http://www.w3.org/2000/svg"
   xmlns:xlink="http://www.w3.org/1999/xlink"
   xmlns:sodipodi="http://sodipodi.sourceforge.net/DTD/sodipodi-0.dtd"
   xmlns:inkscape="http://www.inkscape.org/namespaces/inkscape"
   version="1.1"
   id="Vrstva_1"
   x="0px"
   y="0px"
   viewBox="0 0 100 100"
   style="enable-background:new 0 0 100 100;"
   xml:space="preserve"
   inkscape:version="0.91 r13725"
   sodipodi:docname="youtube.svg"><metadata
     id="metadata27"><rdf:RDF><cc:Work
         rdf:about=""><dc:format>image/svg+xml</dc:format><dc:type
           rdf:resource="http://purl.org/dc/dcmitype/StillImage" /></cc:Work></rdf:RDF></metadata><defs
     id="defs25" /><sodipodi:namedview
     pagecolor="#ffffff"
     bordercolor="#666666"
     borderopacity="1"
     objecttolerance="10"
     gridtolerance="10"
     guidetolerance="10"
     inkscape:pageopacity="0"
     inkscape:pageshadow="2"
     inkscape:window-width="1920"
     inkscape:window-height="1056"
     id="namedview23"
     showgrid="false"
     inkscape:zoom="6.675088"
     inkscape:cx="71.478182"
     inkscape:cy="59.19156"
     inkscape:window-x="0"
     inkscape:window-y="24"
     inkscape:window-maximized="1"
     inkscape:current-layer="Vrstva_1" /><style
     type="text/css"
     id="style3">
	.st0{clip-path:url(#SVGID_2_);fill:#AF4F4E;}
	.st1{clip-path:url(#SVGID_2_);fill:#CC202D;}
	.st2{fill:#BA202E;}
	.st3{fill:#FFFFFF;}
</style><g
     id="g7"
     style="fill:#d14b4b;fill-opacity:1"><defs
       id="defs9"><rect
         height="98"
         width="97.800003"
         y="1.4"
         x="1"
         id="SVGID_1_" /></defs><clipPath
       id="SVGID_2_"><use
         height="100%"
         width="100%"
         y="0"
         x="0"
         id="use13"
         style="overflow:visible"
         xlink:href="#SVGID_1_" /></clipPath><path
       style="fill:#d14b4b;fill-opacity:1"
       inkscape:connector-curvature="0"
       clip-path="url(#SVGID_2_)"
       id="path15"
       d="M 98.6,50.4 C 98.6,77.3 76.8,99.2 49.8,99.2 22.8,99.2 1,77.4 1,50.4 1,23.5 22.8,1.6 49.8,1.6 c 26.9,0 48.8,21.9 48.8,48.8 l 0,0 z m 0,0"
       class="st0" /><path
       style="fill:#d14b4b;fill-opacity:1"
       inkscape:connector-curvature="0"
       clip-path="url(#SVGID_2_)"
       id="path17"
       d="M 84.3,15.9"
       class="st1" /></g><path
     style="fill:#ba202e"
     inkscape:connector-curvature="0"
     id="path19"
     d="M 97.6,60.2"
     class="st2" /><path
     style="fill:#ffffff"
     inkscape:connector-curvature="0"
     id="path21"
     d="m 75.3,41 c 0,-4.1 -3.3,-7.4 -7.4,-7.4 l -34.7,0 c -4.1,0 -7.4,3.3 -7.4,7.4 l 0,19.9 c 0,4.1 3.3,7.4 7.4,7.4 l 34.7,0 c 4.1,0 7.4,-3.3 7.4,-7.4 l 0,-19.9 0,0 z m -29.7,18.3 0,-18.6 14.1,9.3 -14.1,9.3 z m 0,0"
     class="st3" /></svg>