<?xml version="1.0" encoding="utf-8"?>
<!-- Generator: Adobe Illustrator 20.0.0, SVG Export Plug-In . SVG Version: 6.00 Build 0)  -->
<svg version="1.1" id="Vrstva_1" xmlns="http://www.w3.org/2000/svg" xmlns:xlink="http://www.w3.org/1999/xlink" x="0px" y="0px"
	 viewBox="0 0 100 100" style="enable-background:new 0 0 100 100;" xml:space="preserve">
<style type="text/css">
	.st0{clip-path:url(#SVGID_2_);fill:#AF4F4E;}
	.st1{clip-path:url(#SVGID_2_);fill:#CC202D;}
	.st2{fill:#BA202E;}
	.st3{fill:#FFFFFF;}
</style>
<g>
	<g>
		<defs>
			<rect id="SVGID_1_" x="1" y="1.4" width="97.8" height="98"/>
		</defs>
		<clipPath id="SVGID_2_">
			<use xlink:href="#SVGID_1_"  style="overflow:visible;"/>
		</clipPath>
		<path class="st0" d="M98.6,50.4c0,26.9-21.8,48.8-48.8,48.8C22.8,99.2,1,77.4,1,50.4C1,23.5,22.8,1.6,49.8,1.6
			C76.7,1.6,98.6,23.5,98.6,50.4L98.6,50.4z M98.6,50.4"/>
		<path class="st1" d="M84.3,15.9"/>
	</g>
	<path class="st2" d="M97.6,60.2"/>
	<path class="st3" d="M75.3,41c0-4.1-3.3-7.4-7.4-7.4H33.2c-4.1,0-7.4,3.3-7.4,7.4v19.9c0,4.1,3.3,7.4,7.4,7.4h34.7
		c4.1,0,7.4-3.3,7.4-7.4L75.3,41L75.3,41z M45.6,59.3V40.7L59.7,50L45.6,59.3z M45.6,59.3"/>
</g>
</svg>
